# xmcd CD database file
#
# Track frame offsets:
#	150
#	50313
#	91644
#
# Disc length: 2421 seconds
#
# Revision: 0
# Processed by: cddbd v1.5.1PL0 Copyright (c) Steve Scherf et al.
# Submitted via: CDex 1.51
#
DISCID=15097303
DTITLE=Tete Montoliu - Tete a Tete
DYEAR=1976
DGENRE=Jazz
TTITLE0=WHAT'S NEW
TTITLE1=WE'LL BE TOGETHER AGAIN
TTITLE2=CATALAN SUITE
EXTD=YEAR: 1976
EXTT0=
EXTT1=
EXTT2=
PLAYORDER=
